<svg width="200" height="48" xmlns="http://www.w3.org/2000/svg" xmlns:xlink="http://www.w3.org/1999/xlink"><defs><path id="a" d="M0 .047h52.5v47.598H0z"/><path id="c" d="M0 47.867h199.833V.269H0z"/></defs><g fill="none" fill-rule="evenodd"><g transform="translate(0 .222)"><mask id="b" fill="#fff"><use xlink:href="#a"/></mask><path d="M28.702.047H.66a.659.659 0 1 0 0 1.32h28.042c12.395 0 22.479 10.083 22.479 22.479 0 12.396-10.084 22.48-22.479 22.48H21.58a.659.659 0 1 0 0 1.319h7.122c13.122 0 23.798-10.677 23.798-23.8C52.5 10.725 41.824.048 28.702.048" fill="#00E6AD" mask="url(#b)"/></g><path d="M46.598 24.068c0-9.88-8.037-17.918-17.918-17.918H9.727a.659.659 0 1 0 0 1.319H28.68c9.152 0 16.599 7.447 16.599 16.599 0 9.152-7.447 16.598-16.599 16.598H14.502a.659.659 0 1 0 0 1.319H28.68c9.88 0 17.918-8.037 17.918-17.917" fill="#00E6AD"/><path d="M18.761 14.1a1.37 1.37 0 0 1-1.37-1.37 1.372 1.372 0 0 1 2.74 0 1.37 1.37 0 0 1-1.37 1.37m0 22.676a1.37 1.37 0 0 1-1.37-1.37 1.372 1.372 0 0 1 2.74 0 1.37 1.37 0 0 1-1.37 1.37m9.941-2.03h-7.337a2.692 2.692 0 0 0-2.604-2.03 2.693 2.693 0 0 0-2.69 2.69 2.693 2.693 0 0 0 2.69 2.69 2.692 2.692 0 0 0 2.604-2.03h7.337c6.616 0 11.998-5.383 11.998-11.998 0-6.615-5.382-11.998-11.998-11.998h-7.337a2.692 2.692 0 0 0-2.604-2.03 2.693 2.693 0 0 0-2.69 2.69 2.693 2.693 0 0 0 2.69 2.69 2.692 2.692 0 0 0 2.604-2.03h7.337c5.888 0 10.679 4.79 10.679 10.678 0 5.888-4.79 10.678-10.679 10.678" fill="#00E6AD"/><path d="M72.202 28.94c-1.337 1.297-3.209 1.947-5.615 1.947h-3.728V17.249h3.728c2.406 0 4.278.65 5.615 1.948 1.336 1.297 2.005 2.921 2.005 4.872 0 1.949-.669 3.574-2.005 4.87M66.61 16.165h-4.955v15.807h4.955c2.752 0 4.902-.751 6.452-2.253 1.549-1.503 2.323-3.385 2.323-5.65 0-2.265-.774-4.149-2.323-5.65-1.55-1.504-3.7-2.254-6.452-2.254" fill="#FFF"/><mask id="d" fill="#fff"><use xlink:href="#c"/></mask><path fill="#FFF" mask="url(#d)" d="M80.305 31.972h1.204V16.165h-1.204zm16.714-7.007a5.229 5.229 0 0 0-1.203-.708 7.8 7.8 0 0 0-1.451-.425l-3.468-.826c-.913-.204-1.608-.515-2.087-.932-.48-.416-.72-1.025-.72-1.828 0-1.006.382-1.808 1.144-2.406.763-.598 1.742-.897 2.937-.897 1.243 0 2.273.315 3.091.944.818.628 1.329 1.47 1.534 2.525l1.179-.284c-.268-1.273-.908-2.296-1.923-3.067-1.014-.77-2.293-1.156-3.833-1.156-1.604 0-2.906.397-3.905 1.192-1 .794-1.499 1.852-1.499 3.172 0 1.967 1.212 3.233 3.634 3.8l3.657.849c1.038.235 1.789.558 2.253.967.464.409.696 1.037.696 1.887 0 1.038-.394 1.864-1.18 2.478-.786.613-1.848.92-3.185.92-1.416 0-2.595-.35-3.538-1.05-.945-.7-1.487-1.656-1.629-2.867l-1.273.283c.173 1.448.84 2.592 2.004 3.433 1.165.842 2.612 1.262 4.342 1.262 1.698 0 3.062-.409 4.093-1.226 1.03-.819 1.546-1.912 1.546-3.28 0-.613-.107-1.152-.319-1.616a2.999 2.999 0 0 0-.897-1.144m13.162-7.951c1.494 0 2.8.361 3.916 1.086a5.816 5.816 0 0 1 2.36 2.949l1.132-.355c-.535-1.462-1.463-2.626-2.784-3.492-1.321-.864-2.863-1.297-4.624-1.297-2.281 0-4.207.79-5.78 2.37-1.573 1.581-2.36 3.512-2.36 5.793 0 2.28.787 4.212 2.36 5.792 1.573 1.581 3.499 2.37 5.78 2.37 1.761 0 3.303-.436 4.624-1.309a6.954 6.954 0 0 0 2.784-3.55l-1.156-.283a5.959 5.959 0 0 1-2.372 2.948c-1.108.725-2.402 1.087-3.88 1.087-1.95 0-3.599-.68-4.942-2.041-1.345-1.36-2.017-3.032-2.017-5.014 0-1.982.672-3.652 2.017-5.014 1.343-1.36 2.992-2.04 4.942-2.04m12.191 14.958h1.204V16.165h-1.204zm16.585-8.493c-.755.676-1.754 1.014-2.997 1.014h-5.473v-7.244h5.473c1.243 0 2.242.335 2.997 1.003.755.67 1.132 1.538 1.132 2.607 0 1.07-.377 1.943-1.132 2.62m.872-6.005c-.975-.873-2.265-1.31-3.869-1.31h-6.677v15.808h1.204v-6.394h5.473c1.604 0 2.894-.437 3.87-1.31.975-.872 1.462-2.008 1.462-3.409 0-1.384-.487-2.513-1.463-3.385m6.8-1.309h-1.204v15.807h10.735v-1.085h-9.531zm13.584 15.807h1.204V16.165h-1.204zm19.109-1.959l-11.136-13.848h-1.061v15.807h1.203V18.217l11.112 13.755h1.062V16.165h-1.18zm8.785-3.443l4.011-8.895 4.01 8.894h-8.021zm4.53-10.405h-1.062l-7.196 15.807h1.274l1.959-4.318h9.012l1.934 4.318h1.275l-7.196-15.807z"/></g></svg>