<svg width="20" height="20" xmlns="http://www.w3.org/2000/svg" xmlns:xlink="http://www.w3.org/1999/xlink"><defs><path id="a" d="M0 0h20v20H0z"/></defs><g fill="none" fill-rule="evenodd"><mask id="b" fill="#fff"><use xlink:href="#a"/></mask><path d="M16.22 7.04c.56-.41 1.05-.92 1.44-1.49-.52.22-1.08.38-1.66.45.6-.36 1.05-.92 1.27-1.59-.56.33-1.18.57-1.83.7a2.901 2.901 0 0 0-2.11-.91c-1.59 0-2.89 1.28-2.89 2.87 0 .23.03.45.08.66a8.201 8.201 0 0 1-5.95-3.01c-.25.43-.39.92-.39 1.45 0 1 .51 1.88 1.28 2.39a2.72 2.72 0 0 1-1.3-.36c-.01.02-.01.03-.01.04 0 1.39 1 2.56 2.32 2.82-.24.07-.5.1-.76.1-.19 0-.37-.02-.54-.05a2.875 2.875 0 0 0 2.69 2 5.781 5.781 0 0 1-3.58 1.23c-.23 0-.46-.01-.69-.04 1.28.82 2.79 1.29 4.42 1.29 5.31 0 8.22-4.38 8.22-8.18 0-.13-.01-.25-.01-.37M5.128 0h9.744c1.784 0 2.43.186 3.082.534.652.35 1.163.86 1.512 1.512S20 3.346 20 5.127v9.745c0 1.783-.185 2.43-.534 3.081a3.64 3.64 0 0 1-1.512 1.513c-.652.348-1.298.534-3.082.534H5.128c-1.783 0-2.43-.186-3.081-.534a3.642 3.642 0 0 1-1.513-1.513C.186 17.303 0 16.655 0 14.873V5.126c0-1.782.186-2.429.534-3.08A3.64 3.64 0 0 1 2.047.533C2.699.186 3.345 0 5.127 0" fill="#FFF" mask="url(#b)"/></g></svg>