<svg width="20" height="20" xmlns="http://www.w3.org/2000/svg"><path d="M16.27 14.05c.18 0 .34-.08.34-.37 0-.37-.5-1.05-1.25-1.85-.31-.41-.82-.85-.98-1.06-.23-.24-.16-.38 0-.63 0 0 1.73-2.43 1.91-3.231.05-.279-.07-.439-.37-.439h-1.51c-.34 0-.47.15-.57.36 0 0-.81 1.73-1.8 2.81-.32.349-.48.46-.66.46-.14 0-.2-.12-.2-.441V6.89c0-.39-.05-.5-.37-.5H8.4c-.18 0-.3.099-.3.25 0 .36.56.45.56 1.44v2.04c0 .41-.02.57-.22.57-.51 0-1.74-1.77-2.43-3.781-.14-.409-.29-.519-.68-.519h-1.5c-.22 0-.38.15-.38.36 0 .4.47 2.25 2.32 4.73 1.24 1.671 2.87 2.57 4.34 2.57.89 0 1.11-.149 1.11-.53v-1.281c0-.319.13-.449.31-.449.21 0 .57.06 1.43.901 1.01.96 1.08 1.359 1.63 1.359h1.68zM5.128 0h9.745c1.783 0 2.429.186 3.082.534a3.637 3.637 0 0 1 1.51 1.513c.35.651.535 1.298.535 3.081v9.744c0 1.783-.186 2.43-.535 3.081a3.631 3.631 0 0 1-1.51 1.513c-.653.349-1.3.534-3.082.534H5.128c-1.784 0-2.43-.185-3.082-.534a3.628 3.628 0 0 1-1.511-1.513C.184 17.302 0 16.655 0 14.872V5.128c0-1.783.185-2.43.534-3.081A3.634 3.634 0 0 1 2.046.534C2.7.186 3.345 0 5.128 0z" fill="#FFF" fill-rule="evenodd"/></svg>