<svg width="20" height="20" xmlns="http://www.w3.org/2000/svg" xmlns:xlink="http://www.w3.org/1999/xlink"><defs><path id="a" d="M0 0h20v20H0z"/></defs><g fill="none" fill-rule="evenodd"><mask id="b" fill="#fff"><use xlink:href="#a"/></mask><path d="M7.312 9.83l6.514-3.813c.117-.068.237.082.137.171l-5.376 4.749a1.04 1.04 0 0 0-.345.634l-.183 1.29c-.024.172-.279.189-.329.023l-.704-2.353a.608.608 0 0 1 .286-.701m-4.064-.076l3.226 1.185 1.248 3.953c.08.253.395.347.603.179l1.799-1.443a.542.542 0 0 1 .653-.019l3.244 2.319c.223.16.539.039.596-.227l2.376-11.25a.38.38 0 0 0-.51-.426L3.244 9.053a.373.373 0 0 0 .004.701M5.128 0h9.745c1.783 0 2.429.185 3.082.534.651.349 1.163.86 1.511 1.512.349.652.534 1.299.534 3.081v9.745c0 1.783-.185 2.43-.534 3.081a3.637 3.637 0 0 1-1.511 1.513c-.653.348-1.299.534-3.082.534H5.128c-1.783 0-2.429-.186-3.081-.534a3.634 3.634 0 0 1-1.512-1.513C.186 17.302 0 16.655 0 14.872V5.127c0-1.782.186-2.429.535-3.081A3.631 3.631 0 0 1 2.047.534C2.699.185 3.345 0 5.128 0" fill="#FFF" mask="url(#b)"/></g></svg>