<svg width="20" height="20" xmlns="http://www.w3.org/2000/svg" xmlns:xlink="http://www.w3.org/1999/xlink"><defs><path id="a" d="M0 0h20v20H0z"/></defs><g fill="none" fill-rule="evenodd"><mask id="b" fill="#fff"><use xlink:href="#a"/></mask><path d="M13.317 8.407c-.39 1.566-2.803.771-3.586.575l.69-2.767c.783.194 3.303.56 2.896 2.192m-.429 4.467c-.428 1.72-3.327.79-4.266.557l.761-3.052c.94.235 3.953.7 3.505 2.495m3.167-4.442c.252-1.68-1.028-2.585-2.778-3.188l.567-2.277-1.385-.346-.553 2.218a58.326 58.326 0 0 0-1.11-.262l.555-2.232L9.966 2l-.568 2.276a43.365 43.365 0 0 1-.885-.208l.001-.007-1.912-.477-.368 1.48s1.028.236 1.006.251c.562.14.663.511.646.806L7.24 8.716c.038.01.09.024.144.045a10.13 10.13 0 0 1-.147-.036l-.906 3.635c-.069.17-.243.426-.636.33.014.02-1.007-.253-1.007-.253L4 14.024l1.804.45c.335.084.664.172.988.255l-.574 2.304 1.385.345.568-2.279c.378.103.746.198 1.105.287l-.566 2.268 1.386.346.574-2.299c2.364.447 4.141.267 4.89-1.872.602-1.72-.03-2.714-1.274-3.36.905-.21 1.588-.806 1.77-2.037M5.127 0h9.744c1.783 0 2.43.185 3.082.534a3.64 3.64 0 0 1 1.511 1.512c.35.652.535 1.3.535 3.081v9.745c0 1.783-.186 2.43-.535 3.081a3.637 3.637 0 0 1-1.51 1.513c-.654.348-1.3.534-3.083.534H5.128c-1.784 0-2.43-.186-3.082-.534a3.634 3.634 0 0 1-1.512-1.513C.185 17.303 0 16.655 0 14.873V5.126c0-1.782.185-2.429.534-3.08A3.631 3.631 0 0 1 2.046.533C2.698.185 3.344 0 5.128 0" fill="#FFF" mask="url(#b)"/></g></svg>