<svg width="20" height="20" xmlns="http://www.w3.org/2000/svg" xmlns:xlink="http://www.w3.org/1999/xlink"><defs><path id="a" d="M0 0h20v20H0z"/></defs><g fill="none" fill-rule="evenodd"><mask id="b" fill="#fff"><use xlink:href="#a"/></mask><path d="M13.06 19.99l.01-7.14h2.48c.22 0 .41-.172.43-.39l.28-2.3a.446.446 0 0 0-.44-.49h-2.76V7.74c0-.87.24-1.47 1.5-1.47h1.16c.24 0 .44-.19.44-.44V3.89c0-.24-.2-.44-.44-.44h-1.9c-2.31 0-3.89 1.41-3.89 3.99v2.23H8.07c-.24 0-.44.2-.44.44l.01 2.3c0 .24.2.44.44.44h1.86l-.01 7.14h3.13zM5.127 0h9.746c1.783 0 2.429.185 3.082.534.65.35 1.163.86 1.51 1.512.35.652.535 1.298.535 3.081v9.745c0 1.783-.186 2.43-.535 3.081a3.637 3.637 0 0 1-1.51 1.513c-.653.348-1.3.534-3.082.534H5.128c-1.784 0-2.43-.186-3.082-.534a3.634 3.634 0 0 1-1.511-1.513c-.35-.65-.535-1.298-.535-3.08V5.126c0-1.783.185-2.429.534-3.08A3.631 3.631 0 0 1 2.046.533C2.7.185 3.345 0 5.128 0z" fill="#FFF" mask="url(#b)"/></g></svg>