<svg width="20" height="20" xmlns="http://www.w3.org/2000/svg" xmlns:xlink="http://www.w3.org/1999/xlink"><defs><path id="a" d="M0 0h20v20H0z"/></defs><g fill="none" fill-rule="evenodd"><mask id="b" fill="#fff"><use xlink:href="#a"/></mask><path d="M12.39 9.995a2.336 2.336 0 0 1-2.332 2.323 2.329 2.329 0 0 1-2.334-2.323 2.32 2.32 0 0 1 2.334-2.313c1.279 0 2.333 1.033 2.333 2.313zm1.322-2.84a.842.842 0 0 0 0-1.683.848.848 0 0 0-.846.836c0 .465.382.848.846.848zm-3.654 6.33a3.5 3.5 0 0 0 3.499-3.49c0-1.921-1.568-3.48-3.5-3.48-1.931 0-3.5 1.559-3.5 3.48a3.5 3.5 0 0 0 3.5 3.49zM13 4.357c1.507 0 2.727 1.219 2.727 2.705v5.865A2.714 2.714 0 0 1 13 15.633H7.104a2.71 2.71 0 0 1-2.715-2.706V7.062a2.717 2.717 0 0 1 2.715-2.705H13zm3.903 8.57V7.064c0-2.137-1.755-3.872-3.904-3.872H7.104c-2.147 0-3.892 1.735-3.892 3.872v5.865c0 2.138 1.745 3.872 3.892 3.872h5.895c2.149 0 3.904-1.734 3.904-3.872zM5.128 0h9.744c1.784 0 2.43.186 3.082.535.652.348 1.164.86 1.512 1.512.349.652.534 1.298.534 3.08v9.745c0 1.784-.185 2.43-.534 3.08a3.622 3.622 0 0 1-1.512 1.514c-.652.349-1.298.534-3.082.534H5.128c-1.783 0-2.43-.185-3.081-.534a3.622 3.622 0 0 1-1.512-1.513C.185 17.302 0 16.656 0 14.872V5.128c0-1.783.186-2.43.535-3.081A3.626 3.626 0 0 1 2.047.535C2.699.185 3.345 0 5.127 0z" fill="#FFF" mask="url(#b)"/></g></svg>