<svg width="20" height="20" xmlns="http://www.w3.org/2000/svg" xmlns:xlink="http://www.w3.org/1999/xlink"><defs><path id="a" d="M0 0h20v20H0z"/></defs><g fill="none" fill-rule="evenodd"><mask id="b" fill="#fff"><use xlink:href="#a"/></mask><path d="M14.995 7.955c-.005.475-.01.953-.012 1.428-.478.005-.953.007-1.428.009v1.423c.475.003.953.005 1.428.01.004.476.004.95.009 1.428.473 0 .948-.002 1.424 0 .002-.478.004-.952.01-1.43l1.427-.007V9.392c-.475-.002-.953-.004-1.427-.009-.003-.475-.008-.953-.01-1.428h-1.421zm-12.88 2.149c-.043 2.087 1.394 4.079 3.371 4.728 1.863.626 4.153.158 5.392-1.438.905-1.117 1.11-2.607 1.013-3.999-1.595-.014-3.19-.009-4.783-.007-.003.568 0 1.134.002 1.703.955.026 1.911.014 2.865.033-.24.826-.79 1.595-1.623 1.893-1.609.709-3.663-.217-4.169-1.905-.611-1.616.389-3.568 2.041-4.038 1.025-.36 2.08.046 2.957.578.444-.415.859-.86 1.268-1.308-.996-.834-2.276-1.345-3.592-1.232-2.581.03-4.84 2.413-4.742 4.992zM5.128 0h9.744c1.783 0 2.43.185 3.082.534.651.349 1.163.86 1.512 1.512.348.652.534 1.299.534 3.081v9.745c0 1.783-.186 2.43-.534 3.081a3.645 3.645 0 0 1-1.512 1.513c-.652.348-1.299.534-3.082.534H5.128c-1.783 0-2.43-.186-3.082-.534a3.64 3.64 0 0 1-1.512-1.513C.185 17.302 0 16.655 0 14.872V5.127c0-1.782.185-2.429.534-3.081A3.637 3.637 0 0 1 2.046.534C2.698.185 3.345 0 5.128 0z" fill="#FFF" mask="url(#b)"/></g></svg>