<svg width="20" height="20" xmlns="http://www.w3.org/2000/svg" xmlns:xlink="http://www.w3.org/1999/xlink"><defs><path id="a" d="M0 0h20v20H0z"/></defs><g fill="none" fill-rule="evenodd"><mask id="b" fill="#fff"><use xlink:href="#a"/></mask><path d="M3.897 6.591v7.073a.816.816 0 0 1-.216.702L2 16.404v.268h4.765v-.268l-1.681-2.038a.844.844 0 0 1-.231-.702V7.548l4.183 9.125h.486l3.593-9.125v7.272c0 .194 0 .232-.127.358l-1.294 1.255v.27h6.274v-.27l-1.247-1.223a.372.372 0 0 1-.14-.36V5.853a.37.37 0 0 1 .14-.359L18 4.27V4h-4.42l-3.154 7.864L6.84 4H2.202v.269l1.494 1.8a.618.618 0 0 1 .201.522m1.23-6.59h9.746c1.783 0 2.429.184 3.082.534a3.63 3.63 0 0 1 1.51 1.511c.35.653.535 1.299.535 3.082v9.745c0 1.783-.186 2.429-.535 3.08a3.637 3.637 0 0 1-1.51 1.514c-.653.348-1.3.534-3.082.534H5.128c-1.784 0-2.43-.187-3.082-.535a3.634 3.634 0 0 1-1.511-1.513C.184 17.302 0 16.656 0 14.873V5.128c0-1.784.185-2.43.534-3.082A3.631 3.631 0 0 1 2.046.536C2.7.184 3.345 0 5.128 0" fill="#FFF" mask="url(#b)"/></g></svg>